<?xml version="1.0" ?><!DOCTYPE svg  PUBLIC '-//W3C//DTD SVG 1.1//EN'  'http://www.w3.org/Graphics/SVG/1.1/DTD/svg11.dtd'><svg enable-background="new 0 0 512 512" height="512px" id="Слой_1" version="1.1" viewBox="0 0 512 512" width="512px" xml:space="preserve" xmlns="http://www.w3.org/2000/svg" xmlns:xlink="http://www.w3.org/1999/xlink"><g id="instagram"><g><path d="M511.994,256c0,141.387-114.607,255.988-255.988,255.988c-141.377,0-255.984-114.602-256-255.98    c0.016-141.381,114.623-255.99,256-255.996C397.387,0.018,511.994,114.627,511.994,256z" fill="#7F4232"/><path d="M349.974,137.313l-38.538,38.547l-22.914-22.906l-61.953,30.906L167.109,124.4l-11.398,11.389    l10.445,10.445l-4.047-1.031l-5.313,3.719l-14.352-14.352l-14.367,14.375l11.828,11.828l-6.234,4.375l-19.855,46.688    l18.863,18.859l-4.758,2.375l56.867,104.482l-51.414,51.412L256.389,511.98c134.936-0.203,245.324-104.805,254.871-237.357    L379.48,142.852l-11.977,11.984L349.974,137.313z" opacity="0.2"/></g><g id="Instagram_1_"><path d="M256.006,320.826c30.102,0,54.523-24.383,54.539-54.508c-0.016-30.1-24.438-54.506-54.539-54.506    c-30.117,0-54.507,24.406-54.507,54.514C201.499,296.443,225.889,320.826,256.006,320.826z M226.186,236.469    c7.953-7.938,18.555-12.328,29.813-12.328c11.297-0.008,21.875,4.391,29.859,12.328c7.945,7.992,12.328,18.594,12.328,29.85    c0,11.289-4.383,21.875-12.344,29.852c-7.969,7.969-18.57,12.336-29.844,12.328c-11.258,0-21.852-4.367-29.813-12.328    c-7.968-7.977-12.351-18.57-12.351-29.852C213.835,255.055,218.218,244.461,226.186,236.469z" fill="#F4F6F9"/><path d="M332.817,123.268H179.219l0.227,66.803h-12.336V124.4c-4.266,0.805-8.375,2-12.32,3.594v62.076h-12.336    l-0.008-55.5c-17.297,11.773-28.645,31.609-28.652,54.117v23.125h88.558c13.766-13.492,32.601-21.805,53.421-21.813    c20.789,0.008,39.633,8.32,53.383,21.813l89.068-0.016V188.68C398.223,152.563,368.949,123.275,332.817,123.268z M364.324,190    l-32.257-0.008v-32.227h32.272L364.324,190z" fill="#F4F6F9"/><path d="M332.067,266.318c0,42.148-34.163,76.328-76.296,76.336c-42.163-0.008-76.326-34.188-76.326-76.336    c0-15.592,4.664-30.084,12.718-42.178h-78.37v118.154c0.008,36.117,29.285,65.404,65.426,65.412H332.81    c36.14-0.008,65.413-29.295,65.413-65.42V224.133l-78.873,0.008C327.411,236.234,332.06,250.727,332.067,266.318z" fill="#F4F6F9"/></g></g></svg>